<?xml version="1.0" encoding="utf-8"?>
<!-- Generator: Adobe Illustrator 28.0.0, SVG Export Plug-In . SVG Version: 6.00 Build 0)  -->
<svg version="1.1" id="Calque_1" xmlns="http://www.w3.org/2000/svg" xmlns:xlink="http://www.w3.org/1999/xlink" x="0px" y="0px"
	 viewBox="0 0 190.04 103.33" style="enable-background:new 0 0 190.04 103.33;" xml:space="preserve">
<style type="text/css">
	.st0{fill:#8DC045;}
</style>
<g>
	<path class="st0" d="M33.88,66.07c3.17,0,6.33,0,8.7,0.08c1.58,0,1.82,7.2,0.79,7.2c-1.03-0.08-24.29,0.79-25.32,0.71
		c-1.19-1.03-1.5-6.25-0.47-7.12h0.08c-0.47-12.82,0-42.57,1.42-44.08c1.74-1.74,15.27-0.95,15.27,0
		C34.36,25.32,33.33,53.17,33.88,66.07z"/>
	<path class="st0" d="M83.26,51.83c0,0.95-2.77,23.9-18.75,23.9c-13.93,0-19.31-6.81-19.31-22.63c0-14.8,3.96-24.53,16.06-24.53
		c13.77,0,12.66,13.37,12.58,14.56c0,8.07-4.67,12.19-9.65,12.19c-0.79,0-2.22,0.08-3.8,0.24c0.16,4.91,1.27,10.92,6.57,10.92
		c7.2,0,10.29-14.32,10.29-17.17C77.25,47.87,83.26,50.88,83.26,51.83z M60.47,50.16c0,0.32,0,0.79-0.08,1.35
		c3.09,0,4.43-2.77,4.91-5.54c0.32-2.85,1.11-8.94-1.35-8.94C60.95,37.03,60.47,46.6,60.47,50.16z"/>
	<path class="st0" d="M113.57,51.83c0,0.95-2.77,23.9-18.75,23.9c-13.93,0-19.31-6.81-19.31-22.63c0-14.8,3.96-24.53,16.06-24.53
		c13.77,0,12.66,13.37,12.58,14.56c0,8.07-4.67,12.19-9.65,12.19c-0.79,0-2.22,0.08-3.8,0.24c0.16,4.91,1.27,10.92,6.57,10.92
		c7.2,0,10.29-14.32,10.29-17.17C107.56,47.87,113.57,50.88,113.57,51.83z M90.78,50.16c0,0.32,0,0.79-0.08,1.35
		c3.09,0,4.43-2.77,4.91-5.54c0.32-2.85,1.11-8.94-1.35-8.94C91.26,37.03,90.78,46.6,90.78,50.16z"/>
	<path class="st0" d="M142.38,53.96c0,5.3-0.32,9.34,2.53,9.34s4.59-11.87,4.59-13.85c1.27-1.27,5.22,3.01,5.22,4.11
		s-4.11,22.63-15.27,22.63c-5.7,0-10.05-2.45-11.63-10.21c-3.01,7.99-8.23,10.37-12.5,10.13c-5.94-0.32-10.45-5.86-9.58-23.11
		c0.95-18.52,10.52-23.27,16.14-23.03c2.61,0.16,4.51,0.79,5.86,2.29c0.08-0.95,0.24-1.58,0.47-1.74
		c0.79-0.87,14.16-1.19,15.98,0.63C144.91,31.88,142.38,41.62,142.38,53.96z M120.46,51.03c-0.16,4.19-1.03,11.71,1.9,11.87
		c1.74,0,4.35-5.14,4.59-11.63s0.55-11.79-2.06-11.87C123.07,39.32,120.7,44.55,120.46,51.03z"/>
	<path class="st0" d="M172.22,26.42c0,1.74-0.79,2.37-1.11,2.37c-1.11,0-1.03-1.35-2.22-1.35c-3.56,0-4.51,8.78-4.75,22.55
		c1.5-0.08,2.85-0.08,4.04-0.08c1.35,0,1.35,5.7,0.47,5.7c-0.24,0-2.06,0.24-4.51,0.63v2.22c0,18.44,0.24,30.07-0.48,30.78
		c-0.71,0.71-12.66,0.32-14.48-1.5c-0.63-0.71-0.63-19.94-0.55-29.2c-0.87,0.08-1.5,0.16-1.66,0.16c-1.03-1.03-1.5-6.33-0.63-7.2
		c0.24-0.16,1.03-0.4,2.29-0.55c-0.08-8.63,0.55-29.67,13.61-29.67C167.63,21.28,172.22,23.42,172.22,26.42z"/>
</g>
</svg>
